<mxfile host="Electron" modified="2023-12-10T14:38:18.097Z" agent="Mozilla/5.0 (Windows NT 10.0; Win64; x64) AppleWebKit/537.36 (KHTML, like Gecko) draw.io/22.1.2 Chrome/114.0.5735.289 Electron/25.9.4 Safari/537.36" etag="_GhCEGVQqOtS2hGPuhtc" version="22.1.2" type="device">
  <diagram id="C5RBs43oDa-KdzZeNtuy" name="Page-1">
    <mxGraphModel dx="979" dy="592" grid="1" gridSize="10" guides="1" tooltips="1" connect="1" arrows="1" fold="1" page="1" pageScale="1" pageWidth="827" pageHeight="1169" math="0" shadow="0">
      <root>
        <mxCell id="WIyWlLk6GJQsqaUBKTNV-0" />
        <mxCell id="WIyWlLk6GJQsqaUBKTNV-1" parent="WIyWlLk6GJQsqaUBKTNV-0" />
        <mxCell id="WIyWlLk6GJQsqaUBKTNV-3" value="Reset" style="rounded=1;whiteSpace=wrap;html=1;fontSize=12;glass=0;strokeWidth=1;shadow=0;shape=ellipse;perimeter=ellipsePerimeter;" parent="WIyWlLk6GJQsqaUBKTNV-1" vertex="1">
          <mxGeometry x="60" y="100" width="120" height="40" as="geometry" />
        </mxCell>
        <mxCell id="As6ZF7eunWHU1R6zSP6g-0" value="Cài đặt RCC_APB2ENR, định hình GPIOA,&lt;br&gt;đặt Dutycycle mặc định, counter R7 = 0" style="rounded=0;whiteSpace=wrap;html=1;" vertex="1" parent="WIyWlLk6GJQsqaUBKTNV-1">
          <mxGeometry x="60" y="170" width="120" height="90" as="geometry" />
        </mxCell>
        <mxCell id="As6ZF7eunWHU1R6zSP6g-1" value="butt_check" style="shape=process;whiteSpace=wrap;html=1;backgroundOutline=1;" vertex="1" parent="WIyWlLk6GJQsqaUBKTNV-1">
          <mxGeometry x="60" y="290" width="120" height="60" as="geometry" />
        </mxCell>
        <mxCell id="As6ZF7eunWHU1R6zSP6g-2" value="PWM" style="shape=process;whiteSpace=wrap;html=1;backgroundOutline=1;" vertex="1" parent="WIyWlLk6GJQsqaUBKTNV-1">
          <mxGeometry x="60" y="380" width="120" height="60" as="geometry" />
        </mxCell>
        <mxCell id="As6ZF7eunWHU1R6zSP6g-3" value="" style="endArrow=classic;html=1;rounded=0;exitX=0.5;exitY=1;exitDx=0;exitDy=0;entryX=0.5;entryY=0;entryDx=0;entryDy=0;" edge="1" parent="WIyWlLk6GJQsqaUBKTNV-1" source="WIyWlLk6GJQsqaUBKTNV-3" target="As6ZF7eunWHU1R6zSP6g-0">
          <mxGeometry width="50" height="50" relative="1" as="geometry">
            <mxPoint x="290" y="420" as="sourcePoint" />
            <mxPoint x="340" y="370" as="targetPoint" />
          </mxGeometry>
        </mxCell>
        <mxCell id="As6ZF7eunWHU1R6zSP6g-4" value="" style="endArrow=classic;html=1;rounded=0;exitX=0.5;exitY=1;exitDx=0;exitDy=0;entryX=0.5;entryY=0;entryDx=0;entryDy=0;" edge="1" parent="WIyWlLk6GJQsqaUBKTNV-1" source="As6ZF7eunWHU1R6zSP6g-0" target="As6ZF7eunWHU1R6zSP6g-1">
          <mxGeometry width="50" height="50" relative="1" as="geometry">
            <mxPoint x="290" y="420" as="sourcePoint" />
            <mxPoint x="340" y="370" as="targetPoint" />
          </mxGeometry>
        </mxCell>
        <mxCell id="As6ZF7eunWHU1R6zSP6g-5" value="" style="endArrow=classic;html=1;rounded=0;exitX=0.5;exitY=1;exitDx=0;exitDy=0;entryX=0.5;entryY=0;entryDx=0;entryDy=0;" edge="1" parent="WIyWlLk6GJQsqaUBKTNV-1" source="As6ZF7eunWHU1R6zSP6g-1" target="As6ZF7eunWHU1R6zSP6g-2">
          <mxGeometry width="50" height="50" relative="1" as="geometry">
            <mxPoint x="290" y="420" as="sourcePoint" />
            <mxPoint x="340" y="370" as="targetPoint" />
          </mxGeometry>
        </mxCell>
        <mxCell id="As6ZF7eunWHU1R6zSP6g-6" value="" style="endArrow=classic;html=1;rounded=0;exitX=0.5;exitY=1;exitDx=0;exitDy=0;entryX=0;entryY=0.5;entryDx=0;entryDy=0;" edge="1" parent="WIyWlLk6GJQsqaUBKTNV-1" source="As6ZF7eunWHU1R6zSP6g-2" target="As6ZF7eunWHU1R6zSP6g-1">
          <mxGeometry width="50" height="50" relative="1" as="geometry">
            <mxPoint x="290" y="420" as="sourcePoint" />
            <mxPoint x="340" y="370" as="targetPoint" />
            <Array as="points">
              <mxPoint x="120" y="480" />
              <mxPoint x="30" y="480" />
              <mxPoint x="30" y="320" />
            </Array>
          </mxGeometry>
        </mxCell>
        <mxCell id="As6ZF7eunWHU1R6zSP6g-7" value="butt_check" style="rounded=1;whiteSpace=wrap;html=1;fontSize=12;glass=0;strokeWidth=1;shadow=0;shape=ellipse;perimeter=ellipsePerimeter;" vertex="1" parent="WIyWlLk6GJQsqaUBKTNV-1">
          <mxGeometry x="250" y="100" width="120" height="40" as="geometry" />
        </mxCell>
        <mxCell id="As6ZF7eunWHU1R6zSP6g-35" value="" style="edgeStyle=orthogonalEdgeStyle;rounded=0;orthogonalLoop=1;jettySize=auto;html=1;" edge="1" parent="WIyWlLk6GJQsqaUBKTNV-1" source="As6ZF7eunWHU1R6zSP6g-8" target="As6ZF7eunWHU1R6zSP6g-9">
          <mxGeometry relative="1" as="geometry" />
        </mxCell>
        <mxCell id="As6ZF7eunWHU1R6zSP6g-8" value="Lấy địa chỉ và số&amp;nbsp;&lt;br&gt;phần tử của mảng cho breathe; Đọc thanh ghi&amp;nbsp;GPIOA_IDR" style="rounded=0;whiteSpace=wrap;html=1;" vertex="1" parent="WIyWlLk6GJQsqaUBKTNV-1">
          <mxGeometry x="250" y="170" width="120" height="90" as="geometry" />
        </mxCell>
        <mxCell id="As6ZF7eunWHU1R6zSP6g-34" value="" style="edgeStyle=orthogonalEdgeStyle;rounded=0;orthogonalLoop=1;jettySize=auto;html=1;" edge="1" parent="WIyWlLk6GJQsqaUBKTNV-1" source="As6ZF7eunWHU1R6zSP6g-9" target="As6ZF7eunWHU1R6zSP6g-13">
          <mxGeometry relative="1" as="geometry" />
        </mxCell>
        <mxCell id="As6ZF7eunWHU1R6zSP6g-9" value="R4 = bit 1 IDR&lt;br&gt;tương đương nút&lt;br&gt;breathe" style="shape=parallelogram;perimeter=parallelogramPerimeter;whiteSpace=wrap;html=1;fixedSize=1;" vertex="1" parent="WIyWlLk6GJQsqaUBKTNV-1">
          <mxGeometry x="250" y="290" width="120" height="60" as="geometry" />
        </mxCell>
        <mxCell id="As6ZF7eunWHU1R6zSP6g-32" value="" style="edgeStyle=orthogonalEdgeStyle;rounded=0;orthogonalLoop=1;jettySize=auto;html=1;" edge="1" parent="WIyWlLk6GJQsqaUBKTNV-1" source="As6ZF7eunWHU1R6zSP6g-10" target="As6ZF7eunWHU1R6zSP6g-13">
          <mxGeometry relative="1" as="geometry" />
        </mxCell>
        <mxCell id="As6ZF7eunWHU1R6zSP6g-10" value="R4 == 0x02" style="rhombus;whiteSpace=wrap;html=1;" vertex="1" parent="WIyWlLk6GJQsqaUBKTNV-1">
          <mxGeometry x="250" y="380" width="120" height="50" as="geometry" />
        </mxCell>
        <mxCell id="As6ZF7eunWHU1R6zSP6g-12" value="breathe" style="rounded=1;whiteSpace=wrap;html=1;fontSize=12;glass=0;strokeWidth=1;shadow=0;shape=ellipse;perimeter=ellipsePerimeter;" vertex="1" parent="WIyWlLk6GJQsqaUBKTNV-1">
          <mxGeometry x="400" y="385" width="120" height="40" as="geometry" />
        </mxCell>
        <mxCell id="As6ZF7eunWHU1R6zSP6g-30" value="" style="edgeStyle=orthogonalEdgeStyle;rounded=0;orthogonalLoop=1;jettySize=auto;html=1;" edge="1" parent="WIyWlLk6GJQsqaUBKTNV-1" source="As6ZF7eunWHU1R6zSP6g-13" target="As6ZF7eunWHU1R6zSP6g-16">
          <mxGeometry relative="1" as="geometry" />
        </mxCell>
        <mxCell id="As6ZF7eunWHU1R6zSP6g-13" value="R4 = bit 0 IDR&lt;br&gt;tương đương nút&lt;br&gt;change" style="shape=parallelogram;perimeter=parallelogramPerimeter;whiteSpace=wrap;html=1;fixedSize=1;" vertex="1" parent="WIyWlLk6GJQsqaUBKTNV-1">
          <mxGeometry x="250" y="460" width="120" height="60" as="geometry" />
        </mxCell>
        <mxCell id="As6ZF7eunWHU1R6zSP6g-14" value="R4 == 0x01" style="rhombus;whiteSpace=wrap;html=1;" vertex="1" parent="WIyWlLk6GJQsqaUBKTNV-1">
          <mxGeometry x="250" y="550" width="120" height="50" as="geometry" />
        </mxCell>
        <mxCell id="As6ZF7eunWHU1R6zSP6g-27" value="" style="edgeStyle=orthogonalEdgeStyle;rounded=0;orthogonalLoop=1;jettySize=auto;html=1;" edge="1" parent="WIyWlLk6GJQsqaUBKTNV-1" source="As6ZF7eunWHU1R6zSP6g-15" target="As6ZF7eunWHU1R6zSP6g-14">
          <mxGeometry relative="1" as="geometry" />
        </mxCell>
        <mxCell id="As6ZF7eunWHU1R6zSP6g-15" value="change" style="rounded=1;whiteSpace=wrap;html=1;fontSize=12;glass=0;strokeWidth=1;shadow=0;shape=ellipse;perimeter=ellipsePerimeter;" vertex="1" parent="WIyWlLk6GJQsqaUBKTNV-1">
          <mxGeometry x="400" y="555" width="120" height="40" as="geometry" />
        </mxCell>
        <mxCell id="As6ZF7eunWHU1R6zSP6g-16" value="PWM" style="rounded=1;whiteSpace=wrap;html=1;fontSize=12;glass=0;strokeWidth=1;shadow=0;shape=ellipse;perimeter=ellipsePerimeter;" vertex="1" parent="WIyWlLk6GJQsqaUBKTNV-1">
          <mxGeometry x="250" y="630.5" width="120" height="40" as="geometry" />
        </mxCell>
        <mxCell id="As6ZF7eunWHU1R6zSP6g-17" value="" style="endArrow=classic;html=1;rounded=0;exitX=0.5;exitY=1;exitDx=0;exitDy=0;entryX=0.5;entryY=0;entryDx=0;entryDy=0;" edge="1" parent="WIyWlLk6GJQsqaUBKTNV-1" source="As6ZF7eunWHU1R6zSP6g-7" target="As6ZF7eunWHU1R6zSP6g-8">
          <mxGeometry width="50" height="50" relative="1" as="geometry">
            <mxPoint x="390" y="330" as="sourcePoint" />
            <mxPoint x="440" y="280" as="targetPoint" />
          </mxGeometry>
        </mxCell>
        <mxCell id="As6ZF7eunWHU1R6zSP6g-21" value="" style="endArrow=classic;html=1;rounded=0;exitX=0.5;exitY=1;exitDx=0;exitDy=0;entryX=0.5;entryY=0;entryDx=0;entryDy=0;" edge="1" parent="WIyWlLk6GJQsqaUBKTNV-1" source="As6ZF7eunWHU1R6zSP6g-13" target="As6ZF7eunWHU1R6zSP6g-14">
          <mxGeometry width="50" height="50" relative="1" as="geometry">
            <mxPoint x="309.5" y="520" as="sourcePoint" />
            <mxPoint x="309.5" y="550" as="targetPoint" />
          </mxGeometry>
        </mxCell>
        <mxCell id="As6ZF7eunWHU1R6zSP6g-25" value="" style="endArrow=classic;html=1;rounded=0;exitX=1;exitY=0.5;exitDx=0;exitDy=0;entryX=0;entryY=0.5;entryDx=0;entryDy=0;" edge="1" parent="WIyWlLk6GJQsqaUBKTNV-1" source="As6ZF7eunWHU1R6zSP6g-10" target="As6ZF7eunWHU1R6zSP6g-12">
          <mxGeometry width="50" height="50" relative="1" as="geometry">
            <mxPoint x="390" y="450" as="sourcePoint" />
            <mxPoint x="440" y="400" as="targetPoint" />
          </mxGeometry>
        </mxCell>
        <mxCell id="As6ZF7eunWHU1R6zSP6g-26" value="" style="endArrow=classic;html=1;rounded=0;exitX=1;exitY=0.5;exitDx=0;exitDy=0;entryX=0;entryY=0.5;entryDx=0;entryDy=0;" edge="1" parent="WIyWlLk6GJQsqaUBKTNV-1" source="As6ZF7eunWHU1R6zSP6g-14" target="As6ZF7eunWHU1R6zSP6g-15">
          <mxGeometry width="50" height="50" relative="1" as="geometry">
            <mxPoint x="370" y="574.5" as="sourcePoint" />
            <mxPoint x="400" y="574.5" as="targetPoint" />
          </mxGeometry>
        </mxCell>
        <mxCell id="As6ZF7eunWHU1R6zSP6g-29" value="" style="endArrow=classic;html=1;rounded=0;exitX=0.5;exitY=1;exitDx=0;exitDy=0;entryX=0.5;entryY=0;entryDx=0;entryDy=0;" edge="1" parent="WIyWlLk6GJQsqaUBKTNV-1" source="As6ZF7eunWHU1R6zSP6g-14" target="As6ZF7eunWHU1R6zSP6g-16">
          <mxGeometry width="50" height="50" relative="1" as="geometry">
            <mxPoint x="309.5" y="600.5" as="sourcePoint" />
            <mxPoint x="310" y="630" as="targetPoint" />
          </mxGeometry>
        </mxCell>
        <mxCell id="As6ZF7eunWHU1R6zSP6g-37" value="T" style="text;html=1;strokeColor=none;fillColor=none;align=center;verticalAlign=middle;whiteSpace=wrap;rounded=0;" vertex="1" parent="WIyWlLk6GJQsqaUBKTNV-1">
          <mxGeometry x="340" y="370" width="60" height="30" as="geometry" />
        </mxCell>
        <mxCell id="As6ZF7eunWHU1R6zSP6g-38" value="F" style="text;html=1;strokeColor=none;fillColor=none;align=center;verticalAlign=middle;whiteSpace=wrap;rounded=0;" vertex="1" parent="WIyWlLk6GJQsqaUBKTNV-1">
          <mxGeometry x="306" y="430" width="60" height="30" as="geometry" />
        </mxCell>
        <mxCell id="As6ZF7eunWHU1R6zSP6g-41" value="T" style="text;html=1;strokeColor=none;fillColor=none;align=center;verticalAlign=middle;whiteSpace=wrap;rounded=0;" vertex="1" parent="WIyWlLk6GJQsqaUBKTNV-1">
          <mxGeometry x="344" y="540.5" width="60" height="30" as="geometry" />
        </mxCell>
        <mxCell id="As6ZF7eunWHU1R6zSP6g-42" value="F" style="text;html=1;strokeColor=none;fillColor=none;align=center;verticalAlign=middle;whiteSpace=wrap;rounded=0;" vertex="1" parent="WIyWlLk6GJQsqaUBKTNV-1">
          <mxGeometry x="310" y="600.5" width="60" height="30" as="geometry" />
        </mxCell>
      </root>
    </mxGraphModel>
  </diagram>
</mxfile>
